<!-- https://icons8.com/icons/set/apple-music -->
<svg xmlns="http://www.w3.org/2000/svg" viewBox="0 0 48 48" width="48px" height="48px">
    <radialGradient id="8GhQmzEeDeFIaTEV~2xbba" cx="28.167" cy="14" r="29.043" gradientUnits="userSpaceOnUse">
        <stop offset="0" stop-color="#fd5" />
        <stop offset=".511" stop-color="#ff543f" />
        <stop offset=".558" stop-color="#fc5245" />
        <stop offset=".644" stop-color="#e64771" />
        <stop offset=".761" stop-color="#d53e91" />
        <stop offset=".863" stop-color="#cc39a4" />
        <stop offset=".943" stop-color="#c837ab" />
    </radialGradient>
    <path fill="url(#8GhQmzEeDeFIaTEV~2xbba)" d="M35,42H13c-3.85,0-7-3.15-7-7V13c0-3.85,3.15-7,7-7h22c3.85,0,7,3.15,7,7v22	C42,38.85,38.85,42,35,42z" />
    <linearGradient id="8GhQmzEeDeFIaTEV~2xbbb" x1="30.102" x2="21.167" y1="7.282" y2="30.995" gradientUnits="userSpaceOnUse">
        <stop offset="0" stop-color="#fd5" />
        <stop offset=".328" stop-color="#ff543f" />
        <stop offset=".348" stop-color="#fc5245" />
        <stop offset=".504" stop-color="#e64771" />
        <stop offset=".643" stop-color="#d53e91" />
        <stop offset=".761" stop-color="#cc39a4" />
        <stop offset=".841" stop-color="#c837ab" />
    </linearGradient>
    <rect width="14.77" height="20.212" x="17.004" y="12.339" fill="url(#8GhQmzEeDeFIaTEV~2xbbb)" />
    <linearGradient id="8GhQmzEeDeFIaTEV~2xbbc" x1="32.652" x2="32.851" y1="34.467" y2="24.311" gradientTransform="matrix(1 0 0 1.3699 0 -12.578)" gradientUnits="userSpaceOnUse">
        <stop offset="0" stop-color="#29abe2" />
        <stop offset=".999" stop-color="#29abe2" stop-opacity="0" />
    </linearGradient>
    <path fill="url(#8GhQmzEeDeFIaTEV~2xbbc)" d="M23.502,20.33H42V35c0,3.866-3.134,7-7,7H23.502V20.33z" />
    <radialGradient id="8GhQmzEeDeFIaTEV~2xbbd" cx="20.649" cy="34.719" r="9.828" gradientTransform="matrix(2.2313 0 0 2.0717 -27.065 -29.797)" gradientUnits="userSpaceOnUse">
        <stop offset="0" stop-color="#29abe2" />
        <stop offset=".613" stop-color="#a0f" />
        <stop offset=".989" stop-color="#29abe2" stop-opacity="0" />
    </radialGradient>
    <path fill="url(#8GhQmzEeDeFIaTEV~2xbbd)" d="M6,21.064h18.121V42H13c-3.866,0-7-3.134-7-7V21.064z" />
    <radialGradient id="8GhQmzEeDeFIaTEV~2xbbe" cx="71.963" cy="57.142" r="6.596" fx="69.828" fy="56.932" gradientTransform="matrix(.4842 -.8019 1.8636 .3724 -116.502 74.808)" gradientUnits="userSpaceOnUse">
        <stop offset=".129" stop-color="#29abe2" />
        <stop offset=".794" stop-color="#29abe2" stop-opacity="0" />
    </radialGradient>
    <rect width="19.185" height="12.309" x="14.909" y="29.691" fill="url(#8GhQmzEeDeFIaTEV~2xbbe)" />
    <path d="M34,9H14c-2.757,0-5,2.243-5,5v20c0,2.757,2.243,5,5,5h20c2.757,0,5-2.243,5-5V14	C39,11.243,36.757,9,34,9z M27.49,28.089l1.715-0.245C29.5,27.802,29.77,27.689,30,27.525v1.862c0,0.71-0.53,1.322-1.233,1.422	l-0.87,0.125c-0.871,0.125-1.64-0.561-1.64-1.422C26.257,28.801,26.787,28.189,27.49,28.089z M28.566,17.817l-7.383,1.583	c-0.247,0.053-0.474,0.156-0.671,0.296v-2.976L30,14.687v3.424C29.605,17.832,29.082,17.709,28.566,17.817z M19.743,29.577v1.861	c0,0.71-0.53,1.322-1.233,1.422l-0.87,0.125c-0.455,0.061-0.895-0.085-1.215-0.403C16.15,32.311,16,31.949,16,31.563	c0-0.71,0.53-1.322,1.233-1.422l1.716-0.245C19.243,29.854,19.514,29.741,19.743,29.577z" opacity=".05" />
    <path d="M34,9.5H14c-2.481,0-4.5,2.019-4.5,4.5v20c0,2.481,2.019,4.5,4.5,4.5h20c2.481,0,4.5-2.019,4.5-4.5	V14C38.5,11.519,36.481,9.5,34,9.5z M27.419,27.594l1.716-0.245c0.647-0.092,1.135-0.654,1.135-1.308v-6.444	c0-0.821-0.788-1.471-1.598-1.291l-7.384,1.583c-0.605,0.129-1.045,0.672-1.045,1.291v10.259c0,0.958-0.715,1.782-1.663,1.917	l-0.869,0.125c-0.616,0.088-1.207-0.115-1.638-0.542c-0.37-0.366-0.573-0.854-0.573-1.375c0-0.958,0.715-1.782,1.662-1.917	l1.717-0.245c0.646-0.092,1.134-0.654,1.134-1.308V16.574c0-0.15,0.106-0.282,0.253-0.313l9.847-2.11	c0.023-0.005,0.047-0.007,0.069-0.007c0.176,0,0.318,0.144,0.318,0.321v14.923c0,0.958-0.715,1.782-1.663,1.917l-0.869,0.125	c-1.178,0.174-2.211-0.757-2.211-1.917C25.757,28.554,26.472,27.729,27.419,27.594z" opacity=".07" />
    <path fill="#fff" d="M34,10H14c-2.2,0-4,1.8-4,4v20c0,2.2,1.8,4,4,4h20c2.2,0,4-1.8,4-4V14C38,11.8,36.2,10,34,10z M31,29.387c0,1.213-0.892,2.241-2.092,2.412l-0.87,0.124c-1.468,0.21-2.781-0.929-2.781-2.412c0-1.213,0.892-2.241,2.092-2.412	l1.716-0.245c0.404-0.058,0.704-0.404,0.704-0.812v-6.445c0-0.522-0.482-0.912-0.992-0.802l-7.385,1.582	c-0.378,0.081-0.649,0.415-0.649,0.802v10.259c0,1.213-0.892,2.241-2.092,2.412l-0.87,0.124C16.313,34.185,15,33.046,15,31.563	c0-1.213,0.892-2.241,2.092-2.412l1.716-0.245c0.404-0.058,0.704-0.404,0.704-0.812V16.574c0-0.387,0.27-0.721,0.649-0.802	l9.846-2.11C30.518,13.552,31,13.942,31,14.464V29.387z" />
</svg>